# MagicaVoxel @ ephtracy

# material
mtllib Switch_red.mtl
usemtl palette

# normals
vn -1 0 0
vn 1 0 0
vn 0 0 1
vn 0 0 -1
vn 0 -1 0
vn 0 1 0

# texcoords
vt 0.111328 0.5
vt 0.306641 0.5
vt 0.849609 0.5
vt 0.986328 0.5

# verts
v -2.5 3 4.5
v -2.5 3 3.5
v -2.5 3 1.5
v -2.5 3 0.5
v -2.5 4 4.5
v -2.5 4 3.5
v -2.5 4 1.5
v -2.5 4 0.5
v -2.5 5 3.5
v -2.5 5 1.5
v -2.5 6 4.5
v -2.5 6 3.5
v -2.5 6 1.5
v -2.5 6 0.5
v -2.5 7 4.5
v -2.5 7 0.5
v -2.5 8 4.5
v -2.5 8 0.5
v -2.5 9 4.5
v -2.5 9 3.5
v -2.5 9 1.5
v -2.5 9 0.5
v -2.5 10 3.5
v -2.5 10 1.5
v -2.5 11 4.5
v -2.5 11 3.5
v -2.5 11 1.5
v -2.5 11 0.5
v -2.5 12 4.5
v -2.5 12 3.5
v -2.5 12 1.5
v -2.5 12 0.5
v -1.5 4 3.5
v -1.5 4 1.5
v -1.5 5 4.5
v -1.5 5 3.5
v -1.5 5 1.5
v -1.5 5 0.5
v -1.5 6 4.5
v -1.5 6 3.5
v -1.5 6 1.5
v -1.5 6 0.5
v -1.5 9 4.5
v -1.5 9 3.5
v -1.5 9 1.5
v -1.5 9 0.5
v -1.5 10 4.5
v -1.5 10 3.5
v -1.5 10 1.5
v -1.5 10 0.5
v -1.5 11 3.5
v -1.5 11 1.5
v 0.5 3 4.5
v 0.5 3 3.5
v 0.5 3 1.5
v 0.5 3 0.5
v 0.5 4 4.5
v 0.5 4 3.5
v 0.5 4 1.5
v 0.5 4 0.5
v 0.5 11 4.5
v 0.5 11 3.5
v 0.5 11 1.5
v 0.5 11 0.5
v 0.5 12 4.5
v 0.5 12 3.5
v 0.5 12 1.5
v 0.5 12 0.5
v -1.5 3 4.5
v -1.5 3 3.5
v -1.5 3 1.5
v -1.5 3 0.5
v -1.5 4 4.5
v -1.5 4 3.5
v -1.5 4 1.5
v -1.5 4 0.5
v -1.5 11 4.5
v -1.5 11 3.5
v -1.5 11 1.5
v -1.5 11 0.5
v -1.5 12 4.5
v -1.5 12 3.5
v -1.5 12 1.5
v -1.5 12 0.5
v 0.5 4 3.5
v 0.5 4 1.5
v 0.5 5 4.5
v 0.5 5 3.5
v 0.5 5 1.5
v 0.5 5 0.5
v 0.5 6 4.5
v 0.5 6 3.5
v 0.5 6 1.5
v 0.5 6 0.5
v 0.5 9 4.5
v 0.5 9 3.5
v 0.5 9 1.5
v 0.5 9 0.5
v 0.5 10 4.5
v 0.5 10 3.5
v 0.5 10 1.5
v 0.5 10 0.5
v 0.5 11 3.5
v 0.5 11 1.5
v 1.5 3 4.5
v 1.5 3 3.5
v 1.5 3 1.5
v 1.5 3 0.5
v 1.5 4 4.5
v 1.5 4 3.5
v 1.5 4 1.5
v 1.5 4 0.5
v 1.5 5 3.5
v 1.5 5 1.5
v 1.5 6 4.5
v 1.5 6 3.5
v 1.5 6 1.5
v 1.5 6 0.5
v 1.5 7 4.5
v 1.5 7 0.5
v 1.5 8 4.5
v 1.5 8 0.5
v 1.5 9 4.5
v 1.5 9 3.5
v 1.5 9 1.5
v 1.5 9 0.5
v 1.5 10 3.5
v 1.5 10 1.5
v 1.5 11 4.5
v 1.5 11 3.5
v 1.5 11 1.5
v 1.5 11 0.5
v 1.5 12 4.5
v 1.5 12 3.5
v 1.5 12 1.5
v 1.5 12 0.5
v -2.5 3 4.5
v -2.5 4 4.5
v -2.5 6 4.5
v -2.5 7 4.5
v -2.5 8 4.5
v -2.5 9 4.5
v -2.5 11 4.5
v -2.5 12 4.5
v -1.5 3 4.5
v -1.5 4 4.5
v -1.5 5 4.5
v -1.5 6 4.5
v -1.5 9 4.5
v -1.5 10 4.5
v -1.5 11 4.5
v -1.5 12 4.5
v 0.5 3 4.5
v 0.5 4 4.5
v 0.5 5 4.5
v 0.5 6 4.5
v 0.5 9 4.5
v 0.5 10 4.5
v 0.5 11 4.5
v 0.5 12 4.5
v 1.5 3 4.5
v 1.5 4 4.5
v 1.5 6 4.5
v 1.5 7 4.5
v 1.5 8 4.5
v 1.5 9 4.5
v 1.5 11 4.5
v 1.5 12 4.5
v -2.5 5 3.5
v -2.5 6 3.5
v -2.5 9 3.5
v -2.5 10 3.5
v -1.5 4 3.5
v -1.5 5 3.5
v -1.5 6 3.5
v -1.5 9 3.5
v -1.5 10 3.5
v -1.5 11 3.5
v 0.5 4 3.5
v 0.5 5 3.5
v 0.5 6 3.5
v 0.5 9 3.5
v 0.5 10 3.5
v 0.5 11 3.5
v 1.5 5 3.5
v 1.5 6 3.5
v 1.5 9 3.5
v 1.5 10 3.5
v -2.5 3 1.5
v -2.5 4 1.5
v -2.5 11 1.5
v -2.5 12 1.5
v -1.5 3 1.5
v -1.5 4 1.5
v -1.5 11 1.5
v -1.5 12 1.5
v 0.5 3 1.5
v 0.5 4 1.5
v 0.5 11 1.5
v 0.5 12 1.5
v 1.5 3 1.5
v 1.5 4 1.5
v 1.5 11 1.5
v 1.5 12 1.5
v -2.5 3 3.5
v -2.5 4 3.5
v -2.5 11 3.5
v -2.5 12 3.5
v -1.5 3 3.5
v -1.5 4 3.5
v -1.5 11 3.5
v -1.5 12 3.5
v 0.5 3 3.5
v 0.5 4 3.5
v 0.5 11 3.5
v 0.5 12 3.5
v 1.5 3 3.5
v 1.5 4 3.5
v 1.5 11 3.5
v 1.5 12 3.5
v -2.5 5 1.5
v -2.5 6 1.5
v -2.5 9 1.5
v -2.5 10 1.5
v -1.5 4 1.5
v -1.5 5 1.5
v -1.5 6 1.5
v -1.5 9 1.5
v -1.5 10 1.5
v -1.5 11 1.5
v 0.5 4 1.5
v 0.5 5 1.5
v 0.5 6 1.5
v 0.5 9 1.5
v 0.5 10 1.5
v 0.5 11 1.5
v 1.5 5 1.5
v 1.5 6 1.5
v 1.5 9 1.5
v 1.5 10 1.5
v -2.5 3 0.5
v -2.5 4 0.5
v -2.5 6 0.5
v -2.5 7 0.5
v -2.5 8 0.5
v -2.5 9 0.5
v -2.5 11 0.5
v -2.5 12 0.5
v -1.5 3 0.5
v -1.5 4 0.5
v -1.5 5 0.5
v -1.5 6 0.5
v -1.5 9 0.5
v -1.5 10 0.5
v -1.5 11 0.5
v -1.5 12 0.5
v 0.5 3 0.5
v 0.5 4 0.5
v 0.5 5 0.5
v 0.5 6 0.5
v 0.5 9 0.5
v 0.5 10 0.5
v 0.5 11 0.5
v 0.5 12 0.5
v 1.5 3 0.5
v 1.5 4 0.5
v 1.5 6 0.5
v 1.5 7 0.5
v 1.5 8 0.5
v 1.5 9 0.5
v 1.5 11 0.5
v 1.5 12 0.5
v -2.5 3 4.5
v -1.5 3 4.5
v 0.5 3 4.5
v 1.5 3 4.5
v -2.5 3 3.5
v -1.5 3 3.5
v 0.5 3 3.5
v 1.5 3 3.5
v -2.5 3 1.5
v -1.5 3 1.5
v 0.5 3 1.5
v 1.5 3 1.5
v -2.5 3 0.5
v -1.5 3 0.5
v 0.5 3 0.5
v 1.5 3 0.5
v -1.5 4 3.5
v 0.5 4 3.5
v -1.5 4 1.5
v 0.5 4 1.5
v -1.5 5 4.5
v 0.5 5 4.5
v -2.5 5 3.5
v -1.5 5 3.5
v 0.5 5 3.5
v 1.5 5 3.5
v -2.5 5 1.5
v -1.5 5 1.5
v 0.5 5 1.5
v 1.5 5 1.5
v -1.5 5 0.5
v 0.5 5 0.5
v -2.5 6 4.5
v -1.5 6 4.5
v 0.5 6 4.5
v 1.5 6 4.5
v -2.5 6 3.5
v -1.5 6 3.5
v 0.5 6 3.5
v 1.5 6 3.5
v -2.5 6 1.5
v -1.5 6 1.5
v 0.5 6 1.5
v 1.5 6 1.5
v -2.5 6 0.5
v -1.5 6 0.5
v 0.5 6 0.5
v 1.5 6 0.5
v -2.5 11 4.5
v -1.5 11 4.5
v 0.5 11 4.5
v 1.5 11 4.5
v -2.5 11 3.5
v -1.5 11 3.5
v 0.5 11 3.5
v 1.5 11 3.5
v -2.5 11 1.5
v -1.5 11 1.5
v 0.5 11 1.5
v 1.5 11 1.5
v -2.5 11 0.5
v -1.5 11 0.5
v 0.5 11 0.5
v 1.5 11 0.5
v -2.5 4 4.5
v -1.5 4 4.5
v 0.5 4 4.5
v 1.5 4 4.5
v -2.5 4 3.5
v -1.5 4 3.5
v 0.5 4 3.5
v 1.5 4 3.5
v -2.5 4 1.5
v -1.5 4 1.5
v 0.5 4 1.5
v 1.5 4 1.5
v -2.5 4 0.5
v -1.5 4 0.5
v 0.5 4 0.5
v 1.5 4 0.5
v -2.5 9 4.5
v -1.5 9 4.5
v 0.5 9 4.5
v 1.5 9 4.5
v -2.5 9 3.5
v -1.5 9 3.5
v 0.5 9 3.5
v 1.5 9 3.5
v -2.5 9 1.5
v -1.5 9 1.5
v 0.5 9 1.5
v 1.5 9 1.5
v -2.5 9 0.5
v -1.5 9 0.5
v 0.5 9 0.5
v 1.5 9 0.5
v -1.5 10 4.5
v 0.5 10 4.5
v -2.5 10 3.5
v -1.5 10 3.5
v 0.5 10 3.5
v 1.5 10 3.5
v -2.5 10 1.5
v -1.5 10 1.5
v 0.5 10 1.5
v 1.5 10 1.5
v -1.5 10 0.5
v 0.5 10 0.5
v -1.5 11 3.5
v 0.5 11 3.5
v -1.5 11 1.5
v 0.5 11 1.5
v -2.5 12 4.5
v -1.5 12 4.5
v 0.5 12 4.5
v 1.5 12 4.5
v -2.5 12 3.5
v -1.5 12 3.5
v 0.5 12 3.5
v 1.5 12 3.5
v -2.5 12 1.5
v -1.5 12 1.5
v 0.5 12 1.5
v 1.5 12 1.5
v -2.5 12 0.5
v -1.5 12 0.5
v 0.5 12 0.5
v 1.5 12 0.5

# faces
f 5/1/1 2/1/1 1/1/1
f 6/1/1 2/1/1 5/1/1
f 7/1/1 4/1/1 3/1/1
f 8/1/1 4/1/1 7/1/1
f 12/1/1 10/1/1 9/1/1
f 13/1/1 10/1/1 12/1/1
f 15/1/1 12/1/1 11/1/1
f 15/1/1 14/1/1 13/1/1
f 15/1/1 13/1/1 12/1/1
f 16/1/1 14/1/1 15/1/1
f 17/4/1 16/4/1 15/4/1
f 18/4/1 16/4/1 17/4/1
f 19/1/1 18/1/1 17/1/1
f 20/1/1 18/1/1 19/1/1
f 21/1/1 18/1/1 20/1/1
f 22/1/1 18/1/1 21/1/1
f 23/1/1 21/1/1 20/1/1
f 24/1/1 21/1/1 23/1/1
f 29/3/1 26/3/1 25/3/1
f 30/3/1 26/3/1 29/3/1
f 31/3/1 28/3/1 27/3/1
f 32/3/1 28/3/1 31/3/1
f 36/1/1 34/1/1 33/1/1
f 37/1/1 34/1/1 36/1/1
f 39/1/1 36/1/1 35/1/1
f 40/1/1 36/1/1 39/1/1
f 41/1/1 38/1/1 37/1/1
f 42/1/1 38/1/1 41/1/1
f 47/1/1 44/1/1 43/1/1
f 48/1/1 44/1/1 47/1/1
f 49/1/1 46/1/1 45/1/1
f 50/1/1 46/1/1 49/1/1
f 51/1/1 49/1/1 48/1/1
f 52/1/1 49/1/1 51/1/1
f 57/1/1 54/1/1 53/1/1
f 58/1/1 54/1/1 57/1/1
f 59/1/1 56/1/1 55/1/1
f 60/1/1 56/1/1 59/1/1
f 65/3/1 62/3/1 61/3/1
f 66/3/1 62/3/1 65/3/1
f 67/3/1 64/3/1 63/3/1
f 68/3/1 64/3/1 67/3/1
f 69/1/2 70/1/2 73/1/2
f 73/1/2 70/1/2 74/1/2
f 71/1/2 72/1/2 75/1/2
f 75/1/2 72/1/2 76/1/2
f 77/3/2 78/3/2 81/3/2
f 81/3/2 78/3/2 82/3/2
f 79/3/2 80/3/2 83/3/2
f 83/3/2 80/3/2 84/3/2
f 85/1/2 86/1/2 88/1/2
f 88/1/2 86/1/2 89/1/2
f 87/1/2 88/1/2 91/1/2
f 91/1/2 88/1/2 92/1/2
f 89/1/2 90/1/2 93/1/2
f 93/1/2 90/1/2 94/1/2
f 95/1/2 96/1/2 99/1/2
f 99/1/2 96/1/2 100/1/2
f 97/1/2 98/1/2 101/1/2
f 101/1/2 98/1/2 102/1/2
f 100/1/2 101/1/2 103/1/2
f 103/1/2 101/1/2 104/1/2
f 105/1/2 106/1/2 109/1/2
f 109/1/2 106/1/2 110/1/2
f 107/1/2 108/1/2 111/1/2
f 111/1/2 108/1/2 112/1/2
f 113/1/2 114/1/2 116/1/2
f 116/1/2 114/1/2 117/1/2
f 115/1/2 116/1/2 119/1/2
f 117/1/2 118/1/2 119/1/2
f 116/1/2 117/1/2 119/1/2
f 119/1/2 118/1/2 120/1/2
f 119/4/2 120/4/2 121/4/2
f 121/4/2 120/4/2 122/4/2
f 121/1/2 122/1/2 123/1/2
f 123/1/2 122/1/2 124/1/2
f 124/1/2 122/1/2 125/1/2
f 125/1/2 122/1/2 126/1/2
f 124/1/2 125/1/2 127/1/2
f 127/1/2 125/1/2 128/1/2
f 129/3/2 130/3/2 133/3/2
f 133/3/2 130/3/2 134/3/2
f 131/3/2 132/3/2 135/3/2
f 135/3/2 132/3/2 136/3/2
f 145/1/3 138/1/3 137/1/3
f 146/1/3 138/1/3 145/1/3
f 148/1/3 140/1/3 139/1/3
f 149/1/3 142/1/3 141/1/3
f 151/3/3 144/3/3 143/3/3
f 152/3/3 144/3/3 151/3/3
f 155/1/3 148/1/3 147/1/3
f 156/1/3 140/1/3 148/1/3
f 156/1/3 148/1/3 155/1/3
f 157/1/3 150/1/3 149/1/3
f 157/1/3 149/1/3 141/1/3
f 158/1/3 150/1/3 157/1/3
f 161/1/3 154/1/3 153/1/3
f 162/1/3 154/1/3 161/1/3
f 163/1/3 140/1/3 156/1/3
f 164/4/3 141/4/3 140/4/3
f 164/1/3 140/1/3 163/1/3
f 165/1/3 157/1/3 141/1/3
f 165/4/3 141/4/3 164/4/3
f 166/1/3 157/1/3 165/1/3
f 167/3/3 160/3/3 159/3/3
f 168/3/3 160/3/3 167/3/3
f 174/1/3 170/1/3 169/1/3
f 175/1/3 170/1/3 174/1/3
f 176/1/3 172/1/3 171/1/3
f 177/1/3 172/1/3 176/1/3
f 179/1/3 174/1/3 173/1/3
f 180/1/3 174/1/3 179/1/3
f 183/1/3 178/1/3 177/1/3
f 184/1/3 178/1/3 183/1/3
f 185/1/3 181/1/3 180/1/3
f 186/1/3 181/1/3 185/1/3
f 187/1/3 183/1/3 182/1/3
f 188/1/3 183/1/3 187/1/3
f 193/1/3 190/1/3 189/1/3
f 194/1/3 190/1/3 193/1/3
f 195/3/3 192/3/3 191/3/3
f 196/3/3 192/3/3 195/3/3
f 201/1/3 198/1/3 197/1/3
f 202/1/3 198/1/3 201/1/3
f 203/3/3 200/3/3 199/3/3
f 204/3/3 200/3/3 203/3/3
f 205/1/4 206/1/4 209/1/4
f 209/1/4 206/1/4 210/1/4
f 207/3/4 208/3/4 211/3/4
f 211/3/4 208/3/4 212/3/4
f 213/1/4 214/1/4 217/1/4
f 217/1/4 214/1/4 218/1/4
f 215/3/4 216/3/4 219/3/4
f 219/3/4 216/3/4 220/3/4
f 221/1/4 222/1/4 226/1/4
f 226/1/4 222/1/4 227/1/4
f 223/1/4 224/1/4 228/1/4
f 228/1/4 224/1/4 229/1/4
f 225/1/4 226/1/4 231/1/4
f 231/1/4 226/1/4 232/1/4
f 229/1/4 230/1/4 235/1/4
f 235/1/4 230/1/4 236/1/4
f 232/1/4 233/1/4 237/1/4
f 237/1/4 233/1/4 238/1/4
f 234/1/4 235/1/4 239/1/4
f 239/1/4 235/1/4 240/1/4
f 241/1/4 242/1/4 249/1/4
f 249/1/4 242/1/4 250/1/4
f 243/1/4 244/1/4 252/1/4
f 245/1/4 246/1/4 253/1/4
f 247/3/4 248/3/4 255/3/4
f 255/3/4 248/3/4 256/3/4
f 251/1/4 252/1/4 259/1/4
f 252/1/4 244/1/4 260/1/4
f 259/1/4 252/1/4 260/1/4
f 253/1/4 254/1/4 261/1/4
f 245/1/4 253/1/4 261/1/4
f 261/1/4 254/1/4 262/1/4
f 257/1/4 258/1/4 265/1/4
f 265/1/4 258/1/4 266/1/4
f 260/1/4 244/1/4 267/1/4
f 244/4/4 245/4/4 268/4/4
f 267/1/4 244/1/4 268/1/4
f 245/1/4 261/1/4 269/1/4
f 268/4/4 245/4/4 269/4/4
f 269/1/4 261/1/4 270/1/4
f 263/3/4 264/3/4 271/3/4
f 271/3/4 264/3/4 272/3/4
f 277/1/5 274/1/5 273/1/5
f 278/1/5 274/1/5 277/1/5
f 279/1/5 276/1/5 275/1/5
f 280/1/5 276/1/5 279/1/5
f 285/1/5 282/1/5 281/1/5
f 286/1/5 282/1/5 285/1/5
f 287/1/5 284/1/5 283/1/5
f 288/1/5 284/1/5 287/1/5
f 291/1/5 290/1/5 289/1/5
f 292/1/5 290/1/5 291/1/5
f 296/1/5 294/1/5 293/1/5
f 297/1/5 294/1/5 296/1/5
f 299/1/5 296/1/5 295/1/5
f 300/1/5 296/1/5 299/1/5
f 301/1/5 298/1/5 297/1/5
f 302/1/5 298/1/5 301/1/5
f 303/1/5 301/1/5 300/1/5
f 304/1/5 301/1/5 303/1/5
f 309/1/5 306/1/5 305/1/5
f 310/1/5 306/1/5 309/1/5
f 311/1/5 308/1/5 307/1/5
f 312/1/5 308/1/5 311/1/5
f 317/1/5 314/1/5 313/1/5
f 318/1/5 314/1/5 317/1/5
f 319/1/5 316/1/5 315/1/5
f 320/1/5 316/1/5 319/1/5
f 325/3/5 322/3/5 321/3/5
f 326/3/5 322/3/5 325/3/5
f 327/3/5 324/3/5 323/3/5
f 328/3/5 324/3/5 327/3/5
f 333/3/5 330/3/5 329/3/5
f 334/3/5 330/3/5 333/3/5
f 335/3/5 332/3/5 331/3/5
f 336/3/5 332/3/5 335/3/5
f 337/1/6 338/1/6 341/1/6
f 341/1/6 338/1/6 342/1/6
f 339/1/6 340/1/6 343/1/6
f 343/1/6 340/1/6 344/1/6
f 345/1/6 346/1/6 349/1/6
f 349/1/6 346/1/6 350/1/6
f 347/1/6 348/1/6 351/1/6
f 351/1/6 348/1/6 352/1/6
f 353/1/6 354/1/6 357/1/6
f 357/1/6 354/1/6 358/1/6
f 355/1/6 356/1/6 359/1/6
f 359/1/6 356/1/6 360/1/6
f 361/1/6 362/1/6 365/1/6
f 365/1/6 362/1/6 366/1/6
f 363/1/6 364/1/6 367/1/6
f 367/1/6 364/1/6 368/1/6
f 369/1/6 370/1/6 372/1/6
f 372/1/6 370/1/6 373/1/6
f 371/1/6 372/1/6 375/1/6
f 375/1/6 372/1/6 376/1/6
f 373/1/6 374/1/6 377/1/6
f 377/1/6 374/1/6 378/1/6
f 376/1/6 377/1/6 379/1/6
f 379/1/6 377/1/6 380/1/6
f 381/1/6 382/1/6 383/1/6
f 383/1/6 382/1/6 384/1/6
f 385/3/6 386/3/6 389/3/6
f 389/3/6 386/3/6 390/3/6
f 387/3/6 388/3/6 391/3/6
f 391/3/6 388/3/6 392/3/6
f 393/3/6 394/3/6 397/3/6
f 397/3/6 394/3/6 398/3/6
f 395/3/6 396/3/6 399/3/6
f 399/3/6 396/3/6 400/3/6
