# MagicaVoxel @ ephtracy

# material
mtllib Window.mtl
usemtl palette

# normals
vn -1 0 0
vn 1 0 0
vn 0 0 1
vn 0 0 -1
vn 0 -1 0
vn 0 1 0

# texcoords
vt 0.970703 0.5
vt 0.974609 0.5
vt 0.982422 0.5

# verts
v -22.5 0 0.5
v -22.5 0 -0.5
v -22.5 3 0.5
v -22.5 3 -0.5
v -22.5 4 0.5
v -22.5 4 -0.5
v -22.5 45 0.5
v -22.5 45 -0.5
v 22.5 0 0.5
v 22.5 0 -0.5
v 22.5 3 0.5
v 22.5 3 -0.5
v 22.5 4 0.5
v 22.5 4 -0.5
v 22.5 45 0.5
v 22.5 45 -0.5
v -22.5 0 0.5
v -22.5 3 0.5
v -22.5 4 0.5
v -22.5 45 0.5
v -21.5 3 0.5
v -21.5 4 0.5
v -21.5 5 0.5
v -20.5 4 0.5
v -20.5 5 0.5
v -20.5 6 0.5
v -20.5 28 0.5
v -20.5 29 0.5
v -19.5 5 0.5
v -19.5 6 0.5
v -19.5 7 0.5
v -19.5 28 0.5
v -19.5 29 0.5
v -19.5 30 0.5
v -18.5 6 0.5
v -18.5 7 0.5
v -18.5 29 0.5
v -18.5 30 0.5
v -18.5 31 0.5
v -17.5 30 0.5
v -17.5 31 0.5
v -17.5 32 0.5
v -16.5 31 0.5
v -16.5 32 0.5
v -12.5 40 0.5
v -12.5 41 0.5
v -11.5 40 0.5
v -11.5 41 0.5
v -11.5 42 0.5
v -10.5 41 0.5
v -10.5 42 0.5
v -9.5 0 0.5
v -9.5 1 0.5
v -8.5 0 0.5
v -8.5 1 0.5
v -8.5 2 0.5
v -7.5 1 0.5
v -7.5 2 0.5
v -7.5 19 0.5
v -7.5 20 0.5
v -6.5 19 0.5
v -6.5 20 0.5
v -6.5 21 0.5
v -5.5 20 0.5
v -5.5 21 0.5
v -3.5 32 0.5
v -3.5 33 0.5
v -2.5 7 0.5
v -2.5 8 0.5
v -2.5 32 0.5
v -2.5 33 0.5
v -2.5 34 0.5
v -1.5 7 0.5
v -1.5 8 0.5
v -1.5 9 0.5
v -1.5 33 0.5
v -1.5 34 0.5
v -1.5 35 0.5
v -0.5 8 0.5
v -0.5 9 0.5
v -0.5 10 0.5
v -0.5 34 0.5
v -0.5 35 0.5
v -0.5 36 0.5
v 0.5 9 0.5
v 0.5 10 0.5
v 0.5 11 0.5
v 0.5 35 0.5
v 0.5 36 0.5
v 1.5 10 0.5
v 1.5 11 0.5
v 6.5 42 0.5
v 6.5 43 0.5
v 7.5 42 0.5
v 7.5 43 0.5
v 7.5 44 0.5
v 8.5 43 0.5
v 8.5 44 0.5
v 13.5 22 0.5
v 13.5 23 0.5
v 14.5 22 0.5
v 14.5 23 0.5
v 14.5 24 0.5
v 15.5 23 0.5
v 15.5 24 0.5
v 15.5 25 0.5
v 16.5 13 0.5
v 16.5 14 0.5
v 16.5 24 0.5
v 16.5 25 0.5
v 16.5 26 0.5
v 16.5 38 0.5
v 16.5 39 0.5
v 17.5 13 0.5
v 17.5 14 0.5
v 17.5 15 0.5
v 17.5 25 0.5
v 17.5 26 0.5
v 17.5 38 0.5
v 17.5 39 0.5
v 17.5 40 0.5
v 18.5 0 0.5
v 18.5 1 0.5
v 18.5 14 0.5
v 18.5 15 0.5
v 18.5 39 0.5
v 18.5 40 0.5
v 18.5 41 0.5
v 19.5 0 0.5
v 19.5 1 0.5
v 19.5 2 0.5
v 19.5 40 0.5
v 19.5 41 0.5
v 19.5 42 0.5
v 20.5 1 0.5
v 20.5 2 0.5
v 20.5 3 0.5
v 20.5 41 0.5
v 20.5 42 0.5
v 21.5 2 0.5
v 21.5 3 0.5
v 21.5 4 0.5
v 22.5 0 0.5
v 22.5 3 0.5
v 22.5 4 0.5
v 22.5 45 0.5
v -22.5 0 -0.5
v -22.5 3 -0.5
v -22.5 4 -0.5
v -22.5 45 -0.5
v -21.5 3 -0.5
v -21.5 4 -0.5
v -21.5 5 -0.5
v -20.5 4 -0.5
v -20.5 5 -0.5
v -20.5 6 -0.5
v -20.5 28 -0.5
v -20.5 29 -0.5
v -19.5 5 -0.5
v -19.5 6 -0.5
v -19.5 7 -0.5
v -19.5 28 -0.5
v -19.5 29 -0.5
v -19.5 30 -0.5
v -18.5 6 -0.5
v -18.5 7 -0.5
v -18.5 29 -0.5
v -18.5 30 -0.5
v -18.5 31 -0.5
v -17.5 30 -0.5
v -17.5 31 -0.5
v -17.5 32 -0.5
v -16.5 31 -0.5
v -16.5 32 -0.5
v -12.5 40 -0.5
v -12.5 41 -0.5
v -11.5 40 -0.5
v -11.5 41 -0.5
v -11.5 42 -0.5
v -10.5 41 -0.5
v -10.5 42 -0.5
v -9.5 0 -0.5
v -9.5 1 -0.5
v -8.5 0 -0.5
v -8.5 1 -0.5
v -8.5 2 -0.5
v -7.5 1 -0.5
v -7.5 2 -0.5
v -7.5 19 -0.5
v -7.5 20 -0.5
v -6.5 19 -0.5
v -6.5 20 -0.5
v -6.5 21 -0.5
v -5.5 20 -0.5
v -5.5 21 -0.5
v -3.5 32 -0.5
v -3.5 33 -0.5
v -2.5 7 -0.5
v -2.5 8 -0.5
v -2.5 32 -0.5
v -2.5 33 -0.5
v -2.5 34 -0.5
v -1.5 7 -0.5
v -1.5 8 -0.5
v -1.5 9 -0.5
v -1.5 33 -0.5
v -1.5 34 -0.5
v -1.5 35 -0.5
v -0.5 8 -0.5
v -0.5 9 -0.5
v -0.5 10 -0.5
v -0.5 34 -0.5
v -0.5 35 -0.5
v -0.5 36 -0.5
v 0.5 9 -0.5
v 0.5 10 -0.5
v 0.5 11 -0.5
v 0.5 35 -0.5
v 0.5 36 -0.5
v 1.5 10 -0.5
v 1.5 11 -0.5
v 6.5 42 -0.5
v 6.5 43 -0.5
v 7.5 42 -0.5
v 7.5 43 -0.5
v 7.5 44 -0.5
v 8.5 43 -0.5
v 8.5 44 -0.5
v 13.5 22 -0.5
v 13.5 23 -0.5
v 14.5 22 -0.5
v 14.5 23 -0.5
v 14.5 24 -0.5
v 15.5 23 -0.5
v 15.5 24 -0.5
v 15.5 25 -0.5
v 16.5 13 -0.5
v 16.5 14 -0.5
v 16.5 24 -0.5
v 16.5 25 -0.5
v 16.5 26 -0.5
v 16.5 38 -0.5
v 16.5 39 -0.5
v 17.5 13 -0.5
v 17.5 14 -0.5
v 17.5 15 -0.5
v 17.5 25 -0.5
v 17.5 26 -0.5
v 17.5 38 -0.5
v 17.5 39 -0.5
v 17.5 40 -0.5
v 18.5 0 -0.5
v 18.5 1 -0.5
v 18.5 14 -0.5
v 18.5 15 -0.5
v 18.5 39 -0.5
v 18.5 40 -0.5
v 18.5 41 -0.5
v 19.5 0 -0.5
v 19.5 1 -0.5
v 19.5 2 -0.5
v 19.5 40 -0.5
v 19.5 41 -0.5
v 19.5 42 -0.5
v 20.5 1 -0.5
v 20.5 2 -0.5
v 20.5 3 -0.5
v 20.5 41 -0.5
v 20.5 42 -0.5
v 21.5 2 -0.5
v 21.5 3 -0.5
v 21.5 4 -0.5
v 22.5 0 -0.5
v 22.5 3 -0.5
v 22.5 4 -0.5
v 22.5 45 -0.5
v -22.5 0 0.5
v -9.5 0 0.5
v -8.5 0 0.5
v 18.5 0 0.5
v 19.5 0 0.5
v 22.5 0 0.5
v -22.5 0 -0.5
v -9.5 0 -0.5
v -8.5 0 -0.5
v 18.5 0 -0.5
v 19.5 0 -0.5
v 22.5 0 -0.5
v -22.5 45 0.5
v 22.5 45 0.5
v -22.5 45 -0.5
v 22.5 45 -0.5

# faces
f 3/3/1 2/3/1 1/3/1
f 4/3/1 2/3/1 3/3/1
f 5/2/1 4/2/1 3/2/1
f 6/2/1 4/2/1 5/2/1
f 7/3/1 6/3/1 5/3/1
f 8/3/1 6/3/1 7/3/1
f 9/3/2 10/3/2 11/3/2
f 11/3/2 10/3/2 12/3/2
f 11/2/2 12/2/2 13/2/2
f 13/2/2 12/2/2 14/2/2
f 13/3/2 14/3/2 15/3/2
f 15/3/2 14/3/2 16/3/2
f 21/3/3 18/3/3 17/3/3
f 21/2/3 19/2/3 18/2/3
f 22/3/3 20/3/3 19/3/3
f 22/2/3 19/2/3 21/2/3
f 23/3/3 20/3/3 22/3/3
f 24/3/3 22/3/3 21/3/3
f 24/1/3 23/1/3 22/1/3
f 25/3/3 20/3/3 23/3/3
f 25/1/3 23/1/3 24/1/3
f 26/3/3 20/3/3 25/3/3
f 27/3/3 20/3/3 26/3/3
f 28/3/3 20/3/3 27/3/3
f 29/3/3 25/3/3 24/3/3
f 29/1/3 26/1/3 25/1/3
f 30/3/3 27/3/3 26/3/3
f 30/1/3 26/1/3 29/1/3
f 31/3/3 27/3/3 30/3/3
f 32/2/3 28/2/3 27/2/3
f 32/3/3 27/3/3 31/3/3
f 33/3/3 20/3/3 28/3/3
f 33/2/3 28/2/3 32/2/3
f 34/3/3 20/3/3 33/3/3
f 35/2/3 31/2/3 30/2/3
f 35/3/3 30/3/3 29/3/3
f 36/3/3 32/3/3 31/3/3
f 36/2/3 31/2/3 35/2/3
f 36/3/3 33/3/3 32/3/3
f 37/1/3 34/1/3 33/1/3
f 37/3/3 33/3/3 36/3/3
f 38/3/3 20/3/3 34/3/3
f 38/1/3 34/1/3 37/1/3
f 39/3/3 20/3/3 38/3/3
f 40/3/3 37/3/3 36/3/3
f 40/3/3 36/3/3 35/3/3
f 40/1/3 39/1/3 38/1/3
f 40/3/3 38/3/3 37/3/3
f 41/3/3 20/3/3 39/3/3
f 41/1/3 39/1/3 40/1/3
f 42/3/3 20/3/3 41/3/3
f 43/3/3 41/3/3 40/3/3
f 43/2/3 42/2/3 41/2/3
f 44/3/3 20/3/3 42/3/3
f 44/2/3 42/2/3 43/2/3
f 45/3/3 44/3/3 43/3/3
f 45/3/3 20/3/3 44/3/3
f 46/3/3 20/3/3 45/3/3
f 47/3/3 45/3/3 43/3/3
f 47/1/3 46/1/3 45/1/3
f 48/3/3 20/3/3 46/3/3
f 48/1/3 46/1/3 47/1/3
f 49/3/3 20/3/3 48/3/3
f 50/3/3 48/3/3 47/3/3
f 50/1/3 49/1/3 48/1/3
f 51/3/3 20/3/3 49/3/3
f 51/1/3 49/1/3 50/1/3
f 52/3/3 21/3/3 17/3/3
f 52/3/3 24/3/3 21/3/3
f 52/3/3 51/3/3 50/3/3
f 52/3/3 50/3/3 47/3/3
f 52/3/3 47/3/3 43/3/3
f 52/3/3 43/3/3 40/3/3
f 52/3/3 29/3/3 24/3/3
f 52/3/3 40/3/3 35/3/3
f 52/3/3 35/3/3 29/3/3
f 53/3/3 51/3/3 52/3/3
f 54/1/3 53/1/3 52/1/3
f 55/3/3 51/3/3 53/3/3
f 55/1/3 53/1/3 54/1/3
f 56/3/3 51/3/3 55/3/3
f 57/3/3 55/3/3 54/3/3
f 57/1/3 56/1/3 55/1/3
f 58/3/3 51/3/3 56/3/3
f 58/1/3 56/1/3 57/1/3
f 59/3/3 51/3/3 58/3/3
f 60/3/3 51/3/3 59/3/3
f 61/3/3 58/3/3 57/3/3
f 61/3/3 59/3/3 58/3/3
f 61/1/3 60/1/3 59/1/3
f 62/3/3 51/3/3 60/3/3
f 62/1/3 60/1/3 61/1/3
f 63/3/3 51/3/3 62/3/3
f 64/3/3 62/3/3 61/3/3
f 64/1/3 63/1/3 62/1/3
f 65/3/3 51/3/3 63/3/3
f 65/1/3 63/1/3 64/1/3
f 66/3/3 65/3/3 64/3/3
f 66/3/3 51/3/3 65/3/3
f 67/3/3 51/3/3 66/3/3
f 68/3/3 61/3/3 57/3/3
f 68/3/3 64/3/3 61/3/3
f 68/3/3 66/3/3 64/3/3
f 69/3/3 66/3/3 68/3/3
f 70/2/3 67/2/3 66/2/3
f 70/3/3 66/3/3 69/3/3
f 71/3/3 51/3/3 67/3/3
f 71/2/3 67/2/3 70/2/3
f 72/3/3 51/3/3 71/3/3
f 73/2/3 69/2/3 68/2/3
f 73/3/3 68/3/3 57/3/3
f 74/3/3 70/3/3 69/3/3
f 74/2/3 69/2/3 73/2/3
f 74/3/3 71/3/3 70/3/3
f 75/3/3 71/3/3 74/3/3
f 76/1/3 72/1/3 71/1/3
f 76/3/3 71/3/3 75/3/3
f 77/3/3 51/3/3 72/3/3
f 77/1/3 72/1/3 76/1/3
f 78/3/3 51/3/3 77/3/3
f 79/1/3 75/1/3 74/1/3
f 79/3/3 74/3/3 73/3/3
f 80/3/3 76/3/3 75/3/3
f 80/1/3 75/1/3 79/1/3
f 80/3/3 77/3/3 76/3/3
f 81/3/3 77/3/3 80/3/3
f 82/1/3 78/1/3 77/1/3
f 82/3/3 77/3/3 81/3/3
f 83/3/3 51/3/3 78/3/3
f 83/1/3 78/1/3 82/1/3
f 84/3/3 51/3/3 83/3/3
f 85/1/3 81/1/3 80/1/3
f 85/3/3 80/3/3 79/3/3
f 86/3/3 82/3/3 81/3/3
f 86/1/3 81/1/3 85/1/3
f 86/3/3 83/3/3 82/3/3
f 87/3/3 83/3/3 86/3/3
f 88/2/3 84/2/3 83/2/3
f 88/3/3 83/3/3 87/3/3
f 89/3/3 51/3/3 84/3/3
f 89/2/3 84/2/3 88/2/3
f 90/2/3 87/2/3 86/2/3
f 90/3/3 86/3/3 85/3/3
f 91/3/3 88/3/3 87/3/3
f 91/2/3 87/2/3 90/2/3
f 91/3/3 89/3/3 88/3/3
f 92/3/3 20/3/3 51/3/3
f 92/3/3 89/3/3 91/3/3
f 92/3/3 91/3/3 90/3/3
f 92/3/3 51/3/3 89/3/3
f 93/3/3 20/3/3 92/3/3
f 94/3/3 92/3/3 90/3/3
f 94/1/3 93/1/3 92/1/3
f 95/3/3 20/3/3 93/3/3
f 95/1/3 93/1/3 94/1/3
f 96/3/3 20/3/3 95/3/3
f 97/3/3 95/3/3 94/3/3
f 97/1/3 96/1/3 95/1/3
f 98/3/3 20/3/3 96/3/3
f 98/1/3 96/1/3 97/1/3
f 99/3/3 94/3/3 90/3/3
f 99/3/3 97/3/3 94/3/3
f 99/3/3 98/3/3 97/3/3
f 100/3/3 98/3/3 99/3/3
f 101/3/3 99/3/3 90/3/3
f 101/2/3 100/2/3 99/2/3
f 102/3/3 98/3/3 100/3/3
f 102/2/3 100/2/3 101/2/3
f 103/3/3 98/3/3 102/3/3
f 104/3/3 102/3/3 101/3/3
f 104/1/3 103/1/3 102/1/3
f 105/3/3 98/3/3 103/3/3
f 105/1/3 103/1/3 104/1/3
f 106/3/3 98/3/3 105/3/3
f 107/3/3 101/3/3 90/3/3
f 107/3/3 104/3/3 101/3/3
f 107/3/3 105/3/3 104/3/3
f 108/3/3 105/3/3 107/3/3
f 109/1/3 106/1/3 105/1/3
f 109/3/3 105/3/3 108/3/3
f 110/3/3 98/3/3 106/3/3
f 110/1/3 106/1/3 109/1/3
f 111/3/3 98/3/3 110/3/3
f 112/3/3 98/3/3 111/3/3
f 113/3/3 98/3/3 112/3/3
f 114/1/3 108/1/3 107/1/3
f 114/3/3 107/3/3 90/3/3
f 115/3/3 109/3/3 108/3/3
f 115/1/3 108/1/3 114/1/3
f 115/3/3 110/3/3 109/3/3
f 116/3/3 110/3/3 115/3/3
f 117/2/3 111/2/3 110/2/3
f 117/3/3 110/3/3 116/3/3
f 118/3/3 112/3/3 111/3/3
f 118/2/3 111/2/3 117/2/3
f 119/2/3 113/2/3 112/2/3
f 119/3/3 112/3/3 118/3/3
f 120/3/3 98/3/3 113/3/3
f 120/2/3 113/2/3 119/2/3
f 121/3/3 98/3/3 120/3/3
f 122/3/3 90/3/3 85/3/3
f 122/3/3 57/3/3 54/3/3
f 122/3/3 73/3/3 57/3/3
f 122/3/3 79/3/3 73/3/3
f 122/3/3 115/3/3 114/3/3
f 122/3/3 85/3/3 79/3/3
f 122/3/3 114/3/3 90/3/3
f 123/3/3 115/3/3 122/3/3
f 124/1/3 116/1/3 115/1/3
f 124/3/3 115/3/3 123/3/3
f 125/3/3 120/3/3 119/3/3
f 125/1/3 116/1/3 124/1/3
f 125/3/3 117/3/3 116/3/3
f 125/3/3 118/3/3 117/3/3
f 125/3/3 119/3/3 118/3/3
f 126/1/3 121/1/3 120/1/3
f 126/3/3 120/3/3 125/3/3
f 127/3/3 98/3/3 121/3/3
f 127/1/3 121/1/3 126/1/3
f 128/3/3 98/3/3 127/3/3
f 129/2/3 123/2/3 122/2/3
f 130/3/3 126/3/3 125/3/3
f 130/2/3 123/2/3 129/2/3
f 130/3/3 125/3/3 124/3/3
f 130/3/3 124/3/3 123/3/3
f 130/3/3 127/3/3 126/3/3
f 131/3/3 127/3/3 130/3/3
f 132/1/3 128/1/3 127/1/3
f 132/3/3 127/3/3 131/3/3
f 133/3/3 98/3/3 128/3/3
f 133/1/3 128/1/3 132/1/3
f 134/3/3 98/3/3 133/3/3
f 135/1/3 131/1/3 130/1/3
f 135/3/3 130/3/3 129/3/3
f 136/3/3 132/3/3 131/3/3
f 136/1/3 131/1/3 135/1/3
f 136/3/3 133/3/3 132/3/3
f 137/3/3 133/3/3 136/3/3
f 138/2/3 134/2/3 133/2/3
f 138/3/3 133/3/3 137/3/3
f 139/3/3 98/3/3 134/3/3
f 139/2/3 134/2/3 138/2/3
f 140/1/3 137/1/3 136/1/3
f 140/3/3 136/3/3 135/3/3
f 141/3/3 138/3/3 137/3/3
f 141/1/3 137/1/3 140/1/3
f 141/3/3 139/3/3 138/3/3
f 142/3/3 139/3/3 141/3/3
f 143/3/3 140/3/3 135/3/3
f 143/3/3 135/3/3 129/3/3
f 143/3/3 141/3/3 140/3/3
f 144/2/3 142/2/3 141/2/3
f 144/3/3 141/3/3 143/3/3
f 145/3/3 139/3/3 142/3/3
f 145/2/3 142/2/3 144/2/3
f 146/3/3 20/3/3 98/3/3
f 146/3/3 139/3/3 145/3/3
f 146/3/3 98/3/3 139/3/3
f 147/3/4 148/3/4 151/3/4
f 148/2/4 149/2/4 151/2/4
f 149/3/4 150/3/4 152/3/4
f 151/2/4 149/2/4 152/2/4
f 152/3/4 150/3/4 153/3/4
f 151/3/4 152/3/4 154/3/4
f 152/1/4 153/1/4 154/1/4
f 153/3/4 150/3/4 155/3/4
f 154/1/4 153/1/4 155/1/4
f 155/3/4 150/3/4 156/3/4
f 156/3/4 150/3/4 157/3/4
f 157/3/4 150/3/4 158/3/4
f 154/3/4 155/3/4 159/3/4
f 155/1/4 156/1/4 159/1/4
f 156/3/4 157/3/4 160/3/4
f 159/1/4 156/1/4 160/1/4
f 160/3/4 157/3/4 161/3/4
f 157/2/4 158/2/4 162/2/4
f 161/3/4 157/3/4 162/3/4
f 158/3/4 150/3/4 163/3/4
f 162/2/4 158/2/4 163/2/4
f 163/3/4 150/3/4 164/3/4
f 160/2/4 161/2/4 165/2/4
f 159/3/4 160/3/4 165/3/4
f 161/3/4 162/3/4 166/3/4
f 165/2/4 161/2/4 166/2/4
f 162/3/4 163/3/4 166/3/4
f 163/1/4 164/1/4 167/1/4
f 166/3/4 163/3/4 167/3/4
f 164/3/4 150/3/4 168/3/4
f 167/1/4 164/1/4 168/1/4
f 168/3/4 150/3/4 169/3/4
f 166/3/4 167/3/4 170/3/4
f 165/3/4 166/3/4 170/3/4
f 168/1/4 169/1/4 170/1/4
f 167/3/4 168/3/4 170/3/4
f 169/3/4 150/3/4 171/3/4
f 170/1/4 169/1/4 171/1/4
f 171/3/4 150/3/4 172/3/4
f 170/3/4 171/3/4 173/3/4
f 171/2/4 172/2/4 173/2/4
f 172/3/4 150/3/4 174/3/4
f 173/2/4 172/2/4 174/2/4
f 173/3/4 174/3/4 175/3/4
f 174/3/4 150/3/4 175/3/4
f 175/3/4 150/3/4 176/3/4
f 173/3/4 175/3/4 177/3/4
f 175/1/4 176/1/4 177/1/4
f 176/3/4 150/3/4 178/3/4
f 177/1/4 176/1/4 178/1/4
f 178/3/4 150/3/4 179/3/4
f 177/3/4 178/3/4 180/3/4
f 178/1/4 179/1/4 180/1/4
f 179/3/4 150/3/4 181/3/4
f 180/1/4 179/1/4 181/1/4
f 147/3/4 151/3/4 182/3/4
f 151/3/4 154/3/4 182/3/4
f 180/3/4 181/3/4 182/3/4
f 177/3/4 180/3/4 182/3/4
f 173/3/4 177/3/4 182/3/4
f 170/3/4 173/3/4 182/3/4
f 154/3/4 159/3/4 182/3/4
f 165/3/4 170/3/4 182/3/4
f 159/3/4 165/3/4 182/3/4
f 182/3/4 181/3/4 183/3/4
f 182/1/4 183/1/4 184/1/4
f 183/3/4 181/3/4 185/3/4
f 184/1/4 183/1/4 185/1/4
f 185/3/4 181/3/4 186/3/4
f 184/3/4 185/3/4 187/3/4
f 185/1/4 186/1/4 187/1/4
f 186/3/4 181/3/4 188/3/4
f 187/1/4 186/1/4 188/1/4
f 188/3/4 181/3/4 189/3/4
f 189/3/4 181/3/4 190/3/4
f 187/3/4 188/3/4 191/3/4
f 188/3/4 189/3/4 191/3/4
f 189/1/4 190/1/4 191/1/4
f 190/3/4 181/3/4 192/3/4
f 191/1/4 190/1/4 192/1/4
f 192/3/4 181/3/4 193/3/4
f 191/3/4 192/3/4 194/3/4
f 192/1/4 193/1/4 194/1/4
f 193/3/4 181/3/4 195/3/4
f 194/1/4 193/1/4 195/1/4
f 194/3/4 195/3/4 196/3/4
f 195/3/4 181/3/4 196/3/4
f 196/3/4 181/3/4 197/3/4
f 187/3/4 191/3/4 198/3/4
f 191/3/4 194/3/4 198/3/4
f 194/3/4 196/3/4 198/3/4
f 198/3/4 196/3/4 199/3/4
f 196/2/4 197/2/4 200/2/4
f 199/3/4 196/3/4 200/3/4
f 197/3/4 181/3/4 201/3/4
f 200/2/4 197/2/4 201/2/4
f 201/3/4 181/3/4 202/3/4
f 198/2/4 199/2/4 203/2/4
f 187/3/4 198/3/4 203/3/4
f 199/3/4 200/3/4 204/3/4
f 203/2/4 199/2/4 204/2/4
f 200/3/4 201/3/4 204/3/4
f 204/3/4 201/3/4 205/3/4
f 201/1/4 202/1/4 206/1/4
f 205/3/4 201/3/4 206/3/4
f 202/3/4 181/3/4 207/3/4
f 206/1/4 202/1/4 207/1/4
f 207/3/4 181/3/4 208/3/4
f 204/1/4 205/1/4 209/1/4
f 203/3/4 204/3/4 209/3/4
f 205/3/4 206/3/4 210/3/4
f 209/1/4 205/1/4 210/1/4
f 206/3/4 207/3/4 210/3/4
f 210/3/4 207/3/4 211/3/4
f 207/1/4 208/1/4 212/1/4
f 211/3/4 207/3/4 212/3/4
f 208/3/4 181/3/4 213/3/4
f 212/1/4 208/1/4 213/1/4
f 213/3/4 181/3/4 214/3/4
f 210/1/4 211/1/4 215/1/4
f 209/3/4 210/3/4 215/3/4
f 211/3/4 212/3/4 216/3/4
f 215/1/4 211/1/4 216/1/4
f 212/3/4 213/3/4 216/3/4
f 216/3/4 213/3/4 217/3/4
f 213/2/4 214/2/4 218/2/4
f 217/3/4 213/3/4 218/3/4
f 214/3/4 181/3/4 219/3/4
f 218/2/4 214/2/4 219/2/4
f 216/2/4 217/2/4 220/2/4
f 215/3/4 216/3/4 220/3/4
f 217/3/4 218/3/4 221/3/4
f 220/2/4 217/2/4 221/2/4
f 218/3/4 219/3/4 221/3/4
f 181/3/4 150/3/4 222/3/4
f 221/3/4 219/3/4 222/3/4
f 220/3/4 221/3/4 222/3/4
f 219/3/4 181/3/4 222/3/4
f 222/3/4 150/3/4 223/3/4
f 220/3/4 222/3/4 224/3/4
f 222/1/4 223/1/4 224/1/4
f 223/3/4 150/3/4 225/3/4
f 224/1/4 223/1/4 225/1/4
f 225/3/4 150/3/4 226/3/4
f 224/3/4 225/3/4 227/3/4
f 225/1/4 226/1/4 227/1/4
f 226/3/4 150/3/4 228/3/4
f 227/1/4 226/1/4 228/1/4
f 220/3/4 224/3/4 229/3/4
f 224/3/4 227/3/4 229/3/4
f 227/3/4 228/3/4 229/3/4
f 229/3/4 228/3/4 230/3/4
f 220/3/4 229/3/4 231/3/4
f 229/2/4 230/2/4 231/2/4
f 230/3/4 228/3/4 232/3/4
f 231/2/4 230/2/4 232/2/4
f 232/3/4 228/3/4 233/3/4
f 231/3/4 232/3/4 234/3/4
f 232/1/4 233/1/4 234/1/4
f 233/3/4 228/3/4 235/3/4
f 234/1/4 233/1/4 235/1/4
f 235/3/4 228/3/4 236/3/4
f 220/3/4 231/3/4 237/3/4
f 231/3/4 234/3/4 237/3/4
f 234/3/4 235/3/4 237/3/4
f 237/3/4 235/3/4 238/3/4
f 235/1/4 236/1/4 239/1/4
f 238/3/4 235/3/4 239/3/4
f 236/3/4 228/3/4 240/3/4
f 239/1/4 236/1/4 240/1/4
f 240/3/4 228/3/4 241/3/4
f 241/3/4 228/3/4 242/3/4
f 242/3/4 228/3/4 243/3/4
f 237/1/4 238/1/4 244/1/4
f 220/3/4 237/3/4 244/3/4
f 238/3/4 239/3/4 245/3/4
f 244/1/4 238/1/4 245/1/4
f 239/3/4 240/3/4 245/3/4
f 245/3/4 240/3/4 246/3/4
f 240/2/4 241/2/4 247/2/4
f 246/3/4 240/3/4 247/3/4
f 241/3/4 242/3/4 248/3/4
f 247/2/4 241/2/4 248/2/4
f 242/2/4 243/2/4 249/2/4
f 248/3/4 242/3/4 249/3/4
f 243/3/4 228/3/4 250/3/4
f 249/2/4 243/2/4 250/2/4
f 250/3/4 228/3/4 251/3/4
f 215/3/4 220/3/4 252/3/4
f 184/3/4 187/3/4 252/3/4
f 187/3/4 203/3/4 252/3/4
f 203/3/4 209/3/4 252/3/4
f 244/3/4 245/3/4 252/3/4
f 209/3/4 215/3/4 252/3/4
f 220/3/4 244/3/4 252/3/4
f 252/3/4 245/3/4 253/3/4
f 245/1/4 246/1/4 254/1/4
f 253/3/4 245/3/4 254/3/4
f 249/3/4 250/3/4 255/3/4
f 254/1/4 246/1/4 255/1/4
f 246/3/4 247/3/4 255/3/4
f 247/3/4 248/3/4 255/3/4
f 248/3/4 249/3/4 255/3/4
f 250/1/4 251/1/4 256/1/4
f 255/3/4 250/3/4 256/3/4
f 251/3/4 228/3/4 257/3/4
f 256/1/4 251/1/4 257/1/4
f 257/3/4 228/3/4 258/3/4
f 252/2/4 253/2/4 259/2/4
f 255/3/4 256/3/4 260/3/4
f 259/2/4 253/2/4 260/2/4
f 254/3/4 255/3/4 260/3/4
f 253/3/4 254/3/4 260/3/4
f 256/3/4 257/3/4 260/3/4
f 260/3/4 257/3/4 261/3/4
f 257/1/4 258/1/4 262/1/4
f 261/3/4 257/3/4 262/3/4
f 258/3/4 228/3/4 263/3/4
f 262/1/4 258/1/4 263/1/4
f 263/3/4 228/3/4 264/3/4
f 260/1/4 261/1/4 265/1/4
f 259/3/4 260/3/4 265/3/4
f 261/3/4 262/3/4 266/3/4
f 265/1/4 261/1/4 266/1/4
f 262/3/4 263/3/4 266/3/4
f 266/3/4 263/3/4 267/3/4
f 263/2/4 264/2/4 268/2/4
f 267/3/4 263/3/4 268/3/4
f 264/3/4 228/3/4 269/3/4
f 268/2/4 264/2/4 269/2/4
f 266/1/4 267/1/4 270/1/4
f 265/3/4 266/3/4 270/3/4
f 267/3/4 268/3/4 271/3/4
f 270/1/4 267/1/4 271/1/4
f 268/3/4 269/3/4 271/3/4
f 271/3/4 269/3/4 272/3/4
f 265/3/4 270/3/4 273/3/4
f 259/3/4 265/3/4 273/3/4
f 270/3/4 271/3/4 273/3/4
f 271/2/4 272/2/4 274/2/4
f 273/3/4 271/3/4 274/3/4
f 272/3/4 269/3/4 275/3/4
f 274/2/4 272/2/4 275/2/4
f 228/3/4 150/3/4 276/3/4
f 275/3/4 269/3/4 276/3/4
f 269/3/4 228/3/4 276/3/4
f 283/3/5 278/3/5 277/3/5
f 284/1/5 279/1/5 278/1/5
f 284/3/5 278/3/5 283/3/5
f 285/3/5 280/3/5 279/3/5
f 285/1/5 279/1/5 284/1/5
f 286/2/5 281/2/5 280/2/5
f 286/3/5 280/3/5 285/3/5
f 287/3/5 282/3/5 281/3/5
f 287/2/5 281/2/5 286/2/5
f 288/3/5 282/3/5 287/3/5
f 289/3/6 290/3/6 291/3/6
f 291/3/6 290/3/6 292/3/6
